<svg xmlns="http://www.w3.org/2000/svg" viewBox="0 0 120 120" fill="none">
  <!-- Rounded square background -->
  <rect x="4" y="4" width="112" height="112" rx="24" fill="rgba(255,255,255,0.15)" stroke="rgba(255,255,255,0.25)" stroke-width="2"/>
  
  <!-- Letter C -->
  <path d="M52 38c-16.5 0-28 12-28 28s11.5 28 28 28c8 0 15-3.2 20-8.5l-8-8c-3 3.2-7 5.2-12 5.2-10 0-17-7.5-17-16.7S42 49.3 52 49.3c5 0 9 2 12 5.2l8-8C67 41.2 60 38 52 38z" fill="#ffffff"/>
  
  <!-- Letter A -->
  <path d="M82 94h-12L88 38h12l18 56h-12l-3.5-12H85.5L82 94zm6-22h13l-6.5-22L88 72z" fill="#60a5fa"/>
  
  <!-- Location pin on A -->
  <circle cx="94" cy="34" r="8" fill="#60a5fa"/>
  <circle cx="94" cy="32" r="3.5" fill="rgba(255,255,255,0.9)"/>
  <path d="M94 28c-3.5 0-6 2.8-6 6 0 4.5 6 10 6 10s6-5.5 6-10c0-3.2-2.5-6-6-6z" fill="#60a5fa"/>
  <circle cx="94" cy="33" r="2.2" fill="rgba(255,255,255,0.95)"/>
</svg>
